<?xml version="1.0" encoding="UTF-8" standalone="no"?>
<svg
   xmlns:dc="http://purl.org/dc/elements/1.1/"
   xmlns:cc="http://creativecommons.org/ns#"
   xmlns:rdf="http://www.w3.org/1999/02/22-rdf-syntax-ns#"
   xmlns:svg="http://www.w3.org/2000/svg"
   xmlns="http://www.w3.org/2000/svg"
   xmlns:sodipodi="http://sodipodi.sourceforge.net/DTD/sodipodi-0.dtd"
   xmlns:inkscape="http://www.inkscape.org/namespaces/inkscape"
   width="120.58504"
   height="55.293686"
   viewBox="0 0 120.58504 55.293686"
   version="1.1"
   id="svg12"
   sodipodi:docname="kofibutton.svg"
   inkscape:version="0.92.4 (5da689c313, 2019-01-14)">
  <metadata
     id="metadata18">
    <rdf:RDF>
      <cc:Work
         rdf:about="">
        <dc:format>image/svg+xml</dc:format>
        <dc:type
           rdf:resource="http://purl.org/dc/dcmitype/StillImage" />
        <dc:title>Artboard</dc:title>
      </cc:Work>
    </rdf:RDF>
  </metadata>
  <defs
     id="defs16">
    <filter
       inkscape:collect="always"
       style="color-interpolation-filters:sRGB"
       id="filter4539"
       x="-0.01361435"
       width="1.0272287"
       y="-0.1012"
       height="1.2024">
      <feGaussianBlur
         inkscape:collect="always"
         stdDeviation="1.265"
         id="feGaussianBlur4541" />
    </filter>
  </defs>
  <sodipodi:namedview
     pagecolor="#ffffff"
     bordercolor="#666666"
     borderopacity="1"
     objecttolerance="10"
     gridtolerance="10"
     guidetolerance="10"
     inkscape:pageopacity="0"
     inkscape:pageshadow="2"
     inkscape:window-width="1281"
     inkscape:window-height="753"
     id="namedview14"
     showgrid="false"
     inkscape:zoom="1.7085202"
     inkscape:cx="-50.683088"
     inkscape:cy="27.646843"
     inkscape:window-x="177"
     inkscape:window-y="60"
     inkscape:window-maximized="0"
     inkscape:current-layer="svg12"
     fit-margin-top="0"
     fit-margin-left="0"
     fit-margin-right="0"
     fit-margin-bottom="0" />
  <!-- Generator: Sketch 53.2 (72643) - https://sketchapp.com -->
  <title
     id="title2">Artboard</title>
  <desc
     id="desc4">Created with Sketch.</desc>
  <rect
     transform="matrix(0.52640674,0,0,1.53287,1.598171,4.6537937)"
     style="fill:#808080;fill-opacity:1;fill-rule:evenodd;stroke:none;stroke-width:1;filter:url(#filter4539)"
     rx="8"
     height="30"
     width="223"
     y="0"
     x="0"
     id="Rectangle" />
  <path
     d="m 25.444923,19.726843 h 1.607617 c 3.100776,0 5.614452,2.513676 5.614452,5.614452 v 0.330014 c 0,3.100777 -2.513676,5.614453 -5.614452,5.614453 h -1.607617 v 1.689795 c 0,1.431128 -1.160158,2.591286 -2.591286,2.591286 H 10.618278 c -1.4311279,0 -2.591286,-1.160158 -2.591286,-2.591286 V 21.022486 c 0,-0.715564 0.5800791,-1.295643 1.2956429,-1.295643 z m 0,2.996757 v 5.565405 h 1.465573 c 1.536844,0 2.782703,-1.245858 2.782703,-2.782703 0,-1.536844 -1.245859,-2.782702 -2.782703,-2.782702 z"
     id="Rectangle-2"
     inkscape:connector-curvature="0"
     style="fill:#ffffff;fill-rule:nonzero;stroke:none;stroke-width:1" />
  <g
     aria-label="Buy me a
cup of tea"
     style="font-style:normal;font-weight:normal;font-size:16px;line-height:1.25;font-family:sans-serif;letter-spacing:0px;word-spacing:0px;fill:#ffffff;fill-opacity:1;fill-rule:evenodd;stroke:none;stroke-width:1"
     id="text4533">
    <path
       d="m 49.277991,16.478225 v 3.561197 h 2.109375 q 1.061198,0 1.56901,-0.436198 0.514323,-0.442708 0.514323,-1.347656 0,-0.911458 -0.514323,-1.341146 -0.507812,-0.436197 -1.56901,-0.436197 z m 0,-3.997396 v 2.929687 h 1.946614 q 0.963542,0 1.432292,-0.358073 0.47526,-0.364583 0.47526,-1.10677 0,-0.735678 -0.47526,-1.100261 -0.46875,-0.364583 -1.432292,-0.364583 z M 47.962887,11.4001 h 3.359375 q 1.503906,0 2.317708,0.625 0.813802,0.625 0.813802,1.777343 0,0.891927 -0.416667,1.419271 -0.416666,0.527344 -1.223958,0.657552 0.970052,0.208334 1.503906,0.872396 0.540365,0.657552 0.540365,1.647135 0,1.302084 -0.885417,2.011719 -0.885416,0.709636 -2.519531,0.709636 h -3.489583 z"
       style="font-size:13.33333302px;fill:#ffffff;fill-opacity:1"
       id="path826" />
    <path
       d="m 56.927731,18.242547 v -4.414062 h 1.197916 v 4.36849 q 0,1.035156 0.403646,1.555989 0.403646,0.514323 1.210937,0.514323 0.970053,0 1.529948,-0.61849 0.566407,-0.618489 0.566407,-1.686197 v -4.134115 h 1.197916 v 7.291667 H 61.836585 V 20.00036 q -0.436198,0.664062 -1.015625,0.989583 -0.572917,0.319011 -1.334636,0.319011 -1.25651,0 -1.907552,-0.78125 -0.651041,-0.78125 -0.651041,-2.285157 z m 3.014322,-4.589843 z"
       style="font-size:13.33333302px;fill:#ffffff;fill-opacity:1"
       id="path828" />
    <path
       d="m 68.548824,21.797235 q -0.507813,1.302083 -0.989584,1.699219 -0.481771,0.397135 -1.289062,0.397135 h -0.957031 v -1.002604 h 0.703125 q 0.494791,0 0.768229,-0.234375 0.273437,-0.234375 0.605468,-1.106771 l 0.214844,-0.546875 -2.949219,-7.174479 h 1.269532 l 2.278645,5.703125 2.278646,-5.703125 h 1.269531 z"
       style="font-size:13.33333302px;fill:#ffffff;fill-opacity:1"
       id="path830" />
    <path
       d="m 83.327469,15.228225 q 0.449218,-0.807292 1.074218,-1.191407 0.625,-0.384114 1.471355,-0.384114 1.139322,0 1.757812,0.800781 0.61849,0.794271 0.61849,2.265625 v 4.401042 h -1.204427 v -4.36198 q 0,-1.048177 -0.371094,-1.555989 -0.371094,-0.507813 -1.132813,-0.507813 -0.930989,0 -1.471354,0.61849 -0.540364,0.61849 -0.540364,1.686198 v 4.121094 h -1.204427 v -4.36198 q 0,-1.054687 -0.371094,-1.555989 -0.371094,-0.507813 -1.145833,-0.507813 -0.917969,0 -1.458334,0.625 -0.540364,0.61849 -0.540364,1.679688 v 4.121094 h -1.204427 v -7.291667 h 1.204427 v 1.132812 q 0.410156,-0.670572 0.983073,-0.989583 0.572916,-0.31901 1.360677,-0.31901 0.79427,0 1.347656,0.403646 0.559896,0.403645 0.826823,1.171875 z"
       style="font-size:13.33333302px;fill:#ffffff;fill-opacity:1"
       id="path832" />
    <path
       d="m 96.882157,17.174839 v 0.585938 h -5.507812 q 0.07813,1.236979 0.742188,1.88802 0.670572,0.644532 1.861979,0.644532 0.690104,0 1.334635,-0.169271 0.651042,-0.169271 1.289063,-0.507813 v 1.132813 q -0.644532,0.273437 -1.321615,0.416666 -0.677083,0.14323 -1.373698,0.14323 -1.744792,0 -2.766927,-1.015625 -1.015625,-1.015625 -1.015625,-2.747396 0,-1.790365 0.963542,-2.838542 0.970052,-1.054687 2.610677,-1.054687 1.471354,0 2.324218,0.950521 0.859375,0.94401 0.859375,2.571614 z m -1.197916,-0.351562 q -0.01302,-0.983073 -0.553386,-1.569011 -0.533854,-0.585937 -1.41927,-0.585937 -1.002605,0 -1.608073,0.566406 -0.598959,0.566406 -0.690104,1.595052 z"
       style="font-size:13.33333302px;fill:#ffffff;fill-opacity:1"
       id="path834" />
    <path
       d="m 106.40689,17.454787 q -1.45182,0 -2.01171,0.332031 -0.5599,0.332032 -0.5599,1.132813 0,0.638021 0.41667,1.015625 0.42317,0.371093 1.14583,0.371093 0.99609,0 1.59505,-0.703125 0.60547,-0.709635 0.60547,-1.88151 v -0.266927 z m 2.38933,-0.494792 v 4.160157 h -1.19792 v -1.106771 q -0.41016,0.664062 -1.02213,0.983073 -0.61198,0.3125 -1.4974,0.3125 -1.11979,0 -1.78385,-0.625 -0.65756,-0.631511 -0.65756,-1.686198 0,-1.230469 0.82032,-1.855469 0.82682,-0.625 2.46093,-0.625 h 1.67969 V 16.4001 q 0,-0.826823 -0.54687,-1.276042 -0.54037,-0.455729 -1.52344,-0.455729 -0.625,0 -1.21745,0.149739 -0.59245,0.14974 -1.13932,0.449219 v -1.106771 q 0.65755,-0.253906 1.27604,-0.377604 0.61849,-0.130208 1.20443,-0.130208 1.58203,0 2.36328,0.820312 0.78125,0.820313 0.78125,2.486979 z"
       style="font-size:13.33333302px;fill:#ffffff;fill-opacity:1"
       id="path836" />
    <path
       d="m 53.158199,34.108433 v 1.119792 q -0.507812,-0.279948 -1.022135,-0.416667 -0.507813,-0.143229 -1.028646,-0.143229 -1.165365,0 -1.809896,0.742187 -0.644531,0.735677 -0.644531,2.070313 0,1.334635 0.644531,2.076823 0.644531,0.735677 1.809896,0.735677 0.520833,0 1.028646,-0.136719 0.514323,-0.143229 1.022135,-0.423177 v 1.106771 q -0.501302,0.234375 -1.041666,0.351562 -0.533855,0.117188 -1.139323,0.117188 -1.647136,0 -2.617188,-1.035157 -0.970052,-1.035156 -0.970052,-2.792968 0,-1.783854 0.976563,-2.80599 0.983072,-1.022135 2.688802,-1.022135 0.553385,0 1.080729,0.117187 0.527344,0.110677 1.022135,0.338542 z"
       style="font-size:13.33333302px;fill:#ffffff;fill-opacity:1"
       id="path838" />
    <path
       d="m 55.130856,38.242547 v -4.414062 h 1.197916 v 4.36849 q 0,1.035156 0.403646,1.555989 0.403646,0.514323 1.210937,0.514323 0.970053,0 1.529948,-0.61849 0.566407,-0.618489 0.566407,-1.686197 v -4.134115 h 1.197916 v 7.291667 H 60.03971 V 40.00036 q -0.436198,0.664062 -1.015625,0.989583 -0.572917,0.319011 -1.334636,0.319011 -1.25651,0 -1.907552,-0.78125 -0.651041,-0.78125 -0.651041,-2.285157 z m 3.014322,-4.589843 z"
       style="font-size:13.33333302px;fill:#ffffff;fill-opacity:1"
       id="path840" />
    <path
       d="m 64.876949,40.026402 v 3.867187 H 63.672522 V 33.828485 h 1.204427 v 1.106771 q 0.377604,-0.651042 0.95052,-0.963542 0.579427,-0.31901 1.380209,-0.31901 1.328125,0 2.154948,1.054687 0.833333,1.054688 0.833333,2.773438 0,1.71875 -0.833333,2.773437 -0.826823,1.054688 -2.154948,1.054688 -0.800782,0 -1.380209,-0.3125 -0.572916,-0.319011 -0.95052,-0.970052 z m 4.07552,-2.545573 q 0,-1.321615 -0.546875,-2.070313 -0.540364,-0.755208 -1.490885,-0.755208 -0.950521,0 -1.497396,0.755208 -0.540364,0.748698 -0.540364,2.070313 0,1.321614 0.540364,2.076823 0.546875,0.748697 1.497396,0.748697 0.950521,0 1.490885,-0.748697 0.546875,-0.755209 0.546875,-2.076823 z"
       style="font-size:13.33333302px;fill:#ffffff;fill-opacity:1"
       id="path842" />
    <path
       d="m 79.251947,34.668329 q -0.963541,0 -1.523437,0.755208 -0.559896,0.748698 -0.559896,2.057292 0,1.308593 0.553385,2.063802 0.559896,0.748698 1.529948,0.748698 0.957032,0 1.516927,-0.755209 0.559896,-0.755208 0.559896,-2.057291 0,-1.295573 -0.559896,-2.050782 -0.559895,-0.761718 -1.516927,-0.761718 z m 0,-1.015625 q 1.5625,0 2.454427,1.015625 0.891927,1.015625 0.891927,2.8125 0,1.790364 -0.891927,2.8125 -0.891927,1.015625 -2.454427,1.015625 -1.56901,0 -2.460937,-1.015625 -0.885417,-1.022136 -0.885417,-2.8125 0,-1.796875 0.885417,-2.8125 0.891927,-1.015625 2.460937,-1.015625 z"
       style="font-size:13.33333302px;fill:#ffffff;fill-opacity:1"
       id="path844" />
    <path
       d="m 88.268874,30.989943 v 0.996094 H 87.12304 q -0.644531,0 -0.898437,0.260417 -0.247396,0.260416 -0.247396,0.9375 v 0.644531 h 1.972656 v 0.93099 h -1.972656 v 6.360677 H 84.77278 v -6.360677 h -1.145833 v -0.93099 h 1.145833 v -0.507812 q 0,-1.217448 0.566406,-1.770834 0.566407,-0.559896 1.796875,-0.559896 z"
       style="font-size:13.33333302px;fill:#ffffff;fill-opacity:1"
       id="path846" />
    <path
       d="m 94.694656,31.758173 v 2.070312 h 2.467448 v 0.93099 h -2.467448 v 3.958333 q 0,0.891927 0.240886,1.145833 0.247396,0.253906 0.996093,0.253906 h 1.230469 v 1.002605 h -1.230469 q -1.386718,0 -1.914062,-0.514323 -0.527344,-0.520834 -0.527344,-1.888021 v -3.958333 h -0.878906 v -0.93099 h 0.878906 v -2.070312 z"
       style="font-size:13.33333302px;fill:#ffffff;fill-opacity:1"
       id="path848" />
    <path
       d="m 104.98111,37.174839 v 0.585938 h -5.507808 q 0.07813,1.236979 0.742188,1.88802 0.67057,0.644532 1.86198,0.644532 0.6901,0 1.33463,-0.169271 0.65105,-0.169271 1.28907,-0.507813 v 1.132813 q -0.64453,0.273437 -1.32162,0.416666 -0.67708,0.14323 -1.3737,0.14323 -1.74479,0 -2.766923,-1.015625 -1.015625,-1.015625 -1.015625,-2.747396 0,-1.790365 0.963542,-2.838542 0.970056,-1.054687 2.610676,-1.054687 1.47135,0 2.32422,0.950521 0.85937,0.94401 0.85937,2.571614 z m -1.19791,-0.351562 q -0.013,-0.983073 -0.55339,-1.569011 -0.53385,-0.585937 -1.41927,-0.585937 -1.0026,0 -1.60807,0.566406 -0.59896,0.566406 -0.690105,1.595052 z"
       style="font-size:13.33333302px;fill:#ffffff;fill-opacity:1"
       id="path850" />
    <path
       d="m 110.26106,37.454787 q -1.45182,0 -2.01172,0.332031 -0.55989,0.332032 -0.55989,1.132813 0,0.638021 0.41666,1.015625 0.42318,0.371093 1.14584,0.371093 0.99609,0 1.59505,-0.703125 0.60547,-0.709635 0.60547,-1.88151 v -0.266927 z m 2.38933,-0.494792 v 4.160157 h -1.19792 v -1.106771 q -0.41016,0.664062 -1.02214,0.983073 -0.61198,0.3125 -1.49739,0.3125 -1.11979,0 -1.78386,-0.625 -0.65755,-0.631511 -0.65755,-1.686198 0,-1.230469 0.82031,-1.855469 0.82683,-0.625 2.46094,-0.625 h 1.67969 V 36.4001 q 0,-0.826823 -0.54688,-1.276042 -0.54036,-0.455729 -1.52343,-0.455729 -0.625,0 -1.21745,0.149739 -0.59245,0.14974 -1.13932,0.449219 v -1.106771 q 0.65755,-0.253906 1.27604,-0.377604 0.61849,-0.130208 1.20442,-0.130208 1.58204,0 2.36329,0.820312 0.78125,0.820313 0.78125,2.486979 z"
       style="font-size:13.33333302px;fill:#ffffff;fill-opacity:1"
       id="path852" />
  </g>
</svg>
